<!DOCTYPE svg PUBLIC "-//W3C//DTD SVG 1.1//EN" "http://www.w3.org/Graphics/SVG/1.1/DTD/svg11.dtd">
<!-- Uploaded to: SVG Repo, www.svgrepo.com, Transformed by: SVG Repo Mixer Tools -->
<svg fill="#ffffff" version="1.1" id="Capa_1" xmlns="http://www.w3.org/2000/svg" xmlns:xlink="http://www.w3.org/1999/xlink" width="800px" height="800px" viewBox="0 0 63.917 63.917" xml:space="preserve" stroke="#ffffff">
<g id="SVGRepo_bgCarrier" stroke-width="0"/>
<g id="SVGRepo_tracerCarrier" stroke-linecap="round" stroke-linejoin="round"/>
<g id="SVGRepo_iconCarrier"> <g> <g> <path d="M62.917,0.625H1c-0.552,0-1,0.447-1,1v50.048c0,0.556,0.448,1,1,1h61.917c0.551,0,1-0.444,1-1V1.625 C63.917,1.072,63.468,0.625,62.917,0.625z M61.917,50.673H2V2.625h59.917V50.673z"/> <path d="M40.874,63.292c0.554,0,1-0.446,1-1v-7.334c0-0.553-0.446-1-1-1H23c-0.552,0-1,0.447-1,1v7.334c0,0.554,0.448,1,1,1 H40.874z M24,55.958h15.875v5.334H24V55.958z"/> <path d="M9.875,46.292h6.448c0.552,0,1-0.446,1-1V24.625c0-0.553-0.448-1-1-1H9.875c-0.552,0-1,0.447-1,1v20.667 C8.875,45.846,9.321,46.292,9.875,46.292z M10.875,25.625h4.448v18.667h-4.448V25.625z"/> <path d="M22.187,46.292h6.312c0.552,0,1-0.446,1-1V29.577c0-0.553-0.448-1-1-1h-6.312c-0.552,0-1,0.447-1,1v15.715 C21.187,45.846,21.636,46.292,22.187,46.292z M23.187,30.577h4.312v13.715h-4.312V30.577z"/> <path d="M31.5,46.292h6.771c0.553,0,1-0.446,1-1V12.375c0-0.553-0.447-1-1-1H31.5c-0.552,0-1,0.447-1,1v32.917 C30.5,45.846,30.946,46.292,31.5,46.292z M32.499,13.375h4.771v30.917h-4.771V13.375z"/> <path d="M42.874,46.292h8.125c0.554,0,1-0.446,1-1V29.577c0-0.553-0.446-1-1-1h-8.125c-0.551,0-1,0.447-1,1v15.715 C41.874,45.846,42.323,46.292,42.874,46.292z M43.874,30.577h6.125v13.715h-6.125V30.577z"/> </g> </g> </g>
</svg>